<svg width="27" height="28" viewBox="0 0 27 28" fill="none" xmlns="http://www.w3.org/2000/svg">
<path d="M0 9.33551V14.26C1.69031 14.2588 3.36427 14.5895 4.92608 15.2331C6.4879 15.8766 7.90692 16.8205 9.10195 18.0106C10.2967 19.2003 11.2442 20.6128 11.8902 22.1672C12.5363 23.7217 12.8683 25.3877 12.8672 27.07H17.8102C17.8057 22.3685 15.9279 17.8608 12.589 14.536C9.24998 11.2112 4.7225 9.34088 0 9.33551H0Z" fill="#11142D"/>
<path d="M24.7197 0.470001H16.8862C20.849 2.97014 24.2069 6.31256 26.7187 10.2574V2.4587C26.7184 1.93114 26.5076 1.42531 26.1327 1.05239C25.7579 0.679479 25.2497 0.470001 24.7197 0.470001V0.470001Z" fill="#11142D"/>
<path d="M4.92188 0.470001H0V4.9038C5.90327 4.90992 11.563 7.24722 15.7373 11.4028C19.9116 15.5585 22.2595 21.193 22.2659 27.07H26.7188V22.17C25.712 16.7846 23.0906 11.8289 19.1999 7.95545C15.3091 4.08199 10.3313 1.47231 4.92188 0.470001V0.470001Z" fill="#11142D"/>
</svg>
